<?xml version="1.0"?>
<svg xmlns="http://www.w3.org/2000/svg" viewBox="0 0 64 64">
    <path d="M 32 1.9375 C 27.787875 1.9375 23.575844 2.8590781 19.652344 4.7050781 L 18.800781 5.1054688 C 15.868781 6.4854687 13.738516 9.2058125 13.103516 12.382812 L 11.210938 21.84375 C 11.149938 22.14875 10.956734 22.404969 10.677734 22.542969 C 9.6437344 23.061969 9 24.100813 9 25.257812 L 9 36.742188 C 9 37.899188 9.6420938 38.938234 10.746094 39.490234 C 11.002094 39.618234 11.191625 39.851906 11.265625 40.128906 L 14.912109 53.798828 C 15.032109 54.248828 15.259359 54.671531 15.568359 55.019531 L 22.65625 62.992188 C 23.22425 63.633187 24.042438 64 24.898438 64 L 39.101562 64 C 39.957563 64 40.77575 63.632188 41.34375 62.992188 L 48.431641 55.019531 C 48.741641 54.670531 48.968891 54.247828 49.087891 53.798828 L 52.734375 40.128906 C 52.808375 39.852906 52.997266 39.620031 53.322266 39.457031 C 54.357266 38.939031 55 37.899188 55 36.742188 L 55 25.257812 C 55 24.100812 54.357266 23.060969 53.322266 22.542969 C 53.044266 22.403969 52.850062 22.149703 52.789062 21.845703 L 50.896484 12.384766 C 50.261484 9.2077656 48.131219 6.4874219 45.199219 5.1074219 L 44.347656 4.7050781 C 40.423656 2.8590781 36.212125 1.9375 32 1.9375 z M 32 3.9375 C 35.922 3.9375 39.842094 4.796625 43.496094 6.515625 L 44.349609 6.9179688 C 46.710609 8.0289688 48.424547 10.219344 48.935547 12.777344 L 49.046875 13.324219 C 48.146875 12.507219 47.138875 11.811875 46.046875 11.296875 C 44.065875 10.362875 41.961969 9.6227031 39.792969 9.0957031 C 39.243969 8.9627031 38.657453 9.0723906 38.189453 9.4003906 C 37.715453 9.7333906 37.40775 10.254125 37.34375 10.828125 L 36.203125 21.109375 C 36.147125 21.616375 35.719984 22 35.208984 22 L 28.789062 22 C 28.279062 22 27.852875 21.616375 27.796875 21.109375 L 26.65625 10.826172 C 26.59325 10.252172 26.284547 9.7323906 25.810547 9.4003906 C 25.342547 9.0713906 24.758031 8.95975 24.207031 9.09375 C 22.042031 9.61875 19.935406 10.360875 17.941406 11.296875 C 16.849406 11.813875 15.851078 12.510219 14.955078 13.324219 L 15.064453 12.775391 C 15.576453 10.216391 17.290391 8.0260156 19.650391 6.9160156 L 20.503906 6.515625 C 24.157906 4.796625 28.078 3.9375 32 3.9375 z M 31 7 C 30.448 7 30 7.448 30 8 C 30 8.552 30.448 9 31 9 L 33 9 C 33.552 9 34 8.552 34 8 C 34 7.448 33.552 7 33 7 L 31 7 z M 39.320312 11.037109 C 41.358312 11.532109 43.334359 12.228469 45.193359 13.105469 C 46.578359 13.757469 47.822875 14.7375 48.796875 15.9375 L 46.582031 29.568359 C 46.543031 29.792359 46.378156 29.975156 46.160156 30.035156 C 36.896156 32.603156 27.102844 32.603156 17.839844 30.035156 C 17.621844 29.974156 17.455922 29.791125 17.419922 29.578125 L 15.207031 15.951172 C 16.180031 14.748172 17.406922 13.760516 18.794922 13.103516 C 20.664922 12.226516 22.644922 11.531875 24.669922 11.046875 L 25.808594 21.328125 C 25.977594 22.852125 27.259016 24 28.791016 24 L 35.210938 24 C 36.741937 24 38.022406 22.853078 38.191406 21.330078 L 39.320312 11.037109 z M 31 12 C 30.448 12 30 12.448 30 13 C 30 13.552 30.448 14 31 14 L 33 14 C 33.552 14 34 13.552 34 13 C 34 12.448 33.552 12 33 12 L 31 12 z M 31 17 C 30.448 17 30 17.448 30 18 C 30 18.552 30.448 19 31 19 L 33 19 C 33.552 19 34 18.552 34 18 C 34 17.448 33.552 17 33 17 L 31 17 z M 13.740234 19.400391 L 15.445312 29.910156 C 15.470313 30.054156 15.532078 30.184313 15.580078 30.320312 C 15.539078 30.363312 15.489078 30.394312 15.455078 30.445312 L 14.503906 31.871094 C 13.620906 33.195094 13.926219 34.980547 15.199219 35.935547 L 16.619141 37 C 17.479141 37.645 18.544141 38 19.619141 38 L 25.050781 38 C 26.194781 38 27.222375 37.364797 27.734375 36.341797 L 28.96875 33.871094 C 29.97875 33.927094 30.989 33.962891 32 33.962891 C 32.779 33.962891 33.557938 33.93925 34.335938 33.90625 L 35.552734 36.341797 C 36.063734 37.364797 37.093328 38 38.236328 38 L 43.667969 38 C 44.742969 38 45.807969 37.645 46.667969 37 L 48.085938 35.935547 C 49.358938 34.980547 49.66425 33.195094 48.78125 31.871094 L 48.130859 30.894531 C 48.331859 30.595531 48.490688 30.268391 48.554688 29.900391 L 50.259766 19.400391 L 50.826172 22.236328 C 51.009172 23.151328 51.592781 23.915031 52.425781 24.332031 C 52.780781 24.508031 53 24.862813 53 25.257812 L 53 36.742188 C 53 37.137188 52.780422 37.492125 52.357422 37.703125 C 52.179422 37.792125 51.416906 38.151937 51.253906 38.335938 L 44.263672 46.199219 C 43.448672 47.115219 43 48.295484 43 49.521484 L 43 52.171875 C 43 52.438875 42.896031 52.689906 42.707031 52.878906 L 42.107422 53.478516 L 40.400391 51.199219 C 39.836391 50.448219 38.939 50 38 50 L 26 50 C 25.061 50 24.163609 50.447219 23.599609 51.199219 L 21.892578 53.478516 L 21.292969 52.878906 C 21.103969 52.689906 21 52.438875 21 52.171875 L 21 49.521484 C 21 48.295484 20.551328 47.115219 19.736328 46.199219 L 12.746094 38.335938 C 12.580094 38.148938 11.774266 37.770922 11.572266 37.669922 C 11.219266 37.492922 11 37.137188 11 36.742188 L 11 25.257812 C 11 24.862813 11.219266 24.508031 11.572266 24.332031 C 12.406266 23.915031 12.989828 23.151328 13.173828 22.236328 L 13.740234 19.400391 z M 16.949219 31.808594 C 17.067219 31.861594 17.179641 31.929844 17.306641 31.964844 C 20.429641 32.830844 23.6115 33.409891 26.8125 33.712891 L 25.945312 35.447266 C 25.774313 35.788266 25.432781 36 25.050781 36 L 19.619141 36 C 18.974141 36 18.335312 35.787391 17.820312 35.400391 L 16.400391 34.335938 C 15.975391 34.017938 15.872969 33.421469 16.167969 32.980469 L 16.949219 31.808594 z M 46.476562 32.019531 L 47.117188 32.980469 C 47.412187 33.421469 47.311719 34.017938 46.886719 34.335938 L 45.466797 35.400391 C 44.950797 35.787391 44.311016 36 43.666016 36 L 38.234375 36 C 37.853375 36 37.511797 35.788266 37.341797 35.447266 L 36.501953 33.769531 C 39.860953 33.493531 43.199562 32.912531 46.476562 32.019531 z M 14.052734 42.8125 L 18.242188 47.527344 C 18.731188 48.078344 19 48.785484 19 49.521484 L 19 52.171875 C 19 52.972875 19.311906 53.725969 19.878906 54.292969 L 20.478516 54.892578 C 20.888516 55.302578 21.455203 55.516656 22.033203 55.472656 C 22.612203 55.431656 23.144188 55.141734 23.492188 54.677734 L 25.199219 52.400391 C 25.387219 52.149391 25.687 52 26 52 L 38 52 C 38.313 52 38.612781 52.149391 38.800781 52.400391 L 40.507812 54.677734 C 40.855812 55.141734 41.387797 55.431656 41.966797 55.472656 C 42.014797 55.475656 42.060422 55.478516 42.107422 55.478516 C 42.636422 55.478516 43.145484 55.269578 43.521484 54.892578 L 44.121094 54.292969 C 44.688094 53.725969 45 52.973875 45 52.171875 L 45 49.521484 C 45 48.785484 45.268813 48.077344 45.757812 47.527344 L 49.947266 42.814453 L 47.15625 53.285156 C 47.11625 53.434156 47.0415 53.575406 46.9375 53.691406 L 39.849609 61.664062 C 39.660609 61.877063 39.386563 62 39.101562 62 L 24.898438 62 C 24.613437 62 24.339391 61.878062 24.150391 61.664062 L 17.0625 53.689453 C 16.9585 53.573453 16.88375 53.434203 16.84375 53.283203 L 14.052734 42.8125 z M 27 56 C 26.448 56 26 56.448 26 57 L 26 59 C 26 59.552 26.448 60 27 60 C 27.552 60 28 59.552 28 59 L 28 57 C 28 56.448 27.552 56 27 56 z M 32 56 C 31.448 56 31 56.448 31 57 L 31 59 C 31 59.552 31.448 60 32 60 C 32.552 60 33 59.552 33 59 L 33 57 C 33 56.448 32.552 56 32 56 z M 37 56 C 36.448 56 36 56.448 36 57 L 36 59 C 36 59.552 36.448 60 37 60 C 37.552 60 38 59.552 38 59 L 38 57 C 38 56.448 37.552 56 37 56 z"/>
</svg>
